<mxfile host="Electron" modified="2025-01-15T18:47:02.781Z" agent="Mozilla/5.0 (X11; Linux x86_64) AppleWebKit/537.36 (KHTML, like Gecko) draw.io/24.6.4 Chrome/124.0.6367.243 Electron/30.5.1 Safari/537.36" etag="H3DRMZy7vYPfEd2H15ov" version="24.6.4" type="device">
  <diagram name="Page-1" id="pMSkDSpoUShZ8aSXpPZ2">
    <mxGraphModel dx="2261" dy="823" grid="1" gridSize="10" guides="1" tooltips="1" connect="1" arrows="1" fold="1" page="1" pageScale="1" pageWidth="827" pageHeight="1169" math="0" shadow="0">
      <root>
        <mxCell id="0" />
        <mxCell id="1" parent="0" />
        <mxCell id="JxO-gLmdxlp4BYvwZ17s-7" value="" style="group" vertex="1" connectable="0" parent="1">
          <mxGeometry x="600" y="560" width="110" height="160" as="geometry" />
        </mxCell>
        <mxCell id="JxO-gLmdxlp4BYvwZ17s-5" value="" style="shape=mxgraph.cisco.people.androgenous_person;html=1;pointerEvents=1;dashed=0;fillColor=#036897;strokeColor=#ffffff;strokeWidth=2;verticalLabelPosition=bottom;verticalAlign=top;align=center;outlineConnect=0;" vertex="1" parent="JxO-gLmdxlp4BYvwZ17s-7">
          <mxGeometry x="8.5" width="93" height="130" as="geometry" />
        </mxCell>
        <mxCell id="JxO-gLmdxlp4BYvwZ17s-6" value="&lt;b&gt;Safety Engineer&lt;/b&gt;" style="text;html=1;align=center;verticalAlign=middle;resizable=0;points=[];autosize=1;strokeColor=none;fillColor=none;" vertex="1" parent="JxO-gLmdxlp4BYvwZ17s-7">
          <mxGeometry y="130" width="110" height="30" as="geometry" />
        </mxCell>
        <mxCell id="JxO-gLmdxlp4BYvwZ17s-11" value="" style="group" vertex="1" connectable="0" parent="1">
          <mxGeometry x="580" y="280" width="140" height="135.5" as="geometry" />
        </mxCell>
        <mxCell id="JxO-gLmdxlp4BYvwZ17s-9" value="" style="sketch=0;outlineConnect=0;fontColor=#232F3E;gradientColor=none;fillColor=#7AA116;strokeColor=none;dashed=0;verticalLabelPosition=bottom;verticalAlign=top;align=center;html=1;fontSize=12;fontStyle=0;aspect=fixed;pointerEvents=1;shape=mxgraph.aws4.factory;" vertex="1" parent="JxO-gLmdxlp4BYvwZ17s-11">
          <mxGeometry x="17.25" width="105.5" height="105.5" as="geometry" />
        </mxCell>
        <mxCell id="JxO-gLmdxlp4BYvwZ17s-10" value="&lt;b&gt;Generative AI Model&lt;/b&gt;" style="text;html=1;align=center;verticalAlign=middle;resizable=0;points=[];autosize=1;strokeColor=none;fillColor=none;" vertex="1" parent="JxO-gLmdxlp4BYvwZ17s-11">
          <mxGeometry y="105.5" width="140" height="30" as="geometry" />
        </mxCell>
        <mxCell id="JxO-gLmdxlp4BYvwZ17s-23" style="edgeStyle=orthogonalEdgeStyle;rounded=0;orthogonalLoop=1;jettySize=auto;html=1;exitX=1;exitY=0.5;exitDx=0;exitDy=0;" edge="1" parent="1" source="JxO-gLmdxlp4BYvwZ17s-12" target="JxO-gLmdxlp4BYvwZ17s-9">
          <mxGeometry relative="1" as="geometry">
            <Array as="points">
              <mxPoint x="330" y="310" />
              <mxPoint x="330" y="333" />
            </Array>
          </mxGeometry>
        </mxCell>
        <mxCell id="JxO-gLmdxlp4BYvwZ17s-12" value="Model of STPA" style="rounded=0;whiteSpace=wrap;html=1;" vertex="1" parent="1">
          <mxGeometry x="-40" y="280" width="120" height="60" as="geometry" />
        </mxCell>
        <mxCell id="JxO-gLmdxlp4BYvwZ17s-26" style="edgeStyle=orthogonalEdgeStyle;rounded=0;orthogonalLoop=1;jettySize=auto;html=1;exitX=1;exitY=0.5;exitDx=0;exitDy=0;" edge="1" parent="1" source="JxO-gLmdxlp4BYvwZ17s-14" target="JxO-gLmdxlp4BYvwZ17s-21">
          <mxGeometry relative="1" as="geometry" />
        </mxCell>
        <mxCell id="JxO-gLmdxlp4BYvwZ17s-14" value="&lt;b&gt;Step 2 of STPA&lt;/b&gt;" style="rounded=0;whiteSpace=wrap;html=1;" vertex="1" parent="1">
          <mxGeometry x="-40" y="524.5" width="120" height="60" as="geometry" />
        </mxCell>
        <mxCell id="JxO-gLmdxlp4BYvwZ17s-25" style="edgeStyle=orthogonalEdgeStyle;rounded=0;orthogonalLoop=1;jettySize=auto;html=1;exitX=1;exitY=0.5;exitDx=0;exitDy=0;entryX=0;entryY=0.5;entryDx=0;entryDy=0;" edge="1" parent="1" source="JxO-gLmdxlp4BYvwZ17s-17" target="JxO-gLmdxlp4BYvwZ17s-20">
          <mxGeometry relative="1" as="geometry" />
        </mxCell>
        <mxCell id="JxO-gLmdxlp4BYvwZ17s-17" value="&lt;b&gt;Step 1 of STPA&lt;/b&gt;" style="rounded=0;whiteSpace=wrap;html=1;" vertex="1" parent="1">
          <mxGeometry x="-40" y="400" width="120" height="60" as="geometry" />
        </mxCell>
        <mxCell id="JxO-gLmdxlp4BYvwZ17s-28" style="edgeStyle=orthogonalEdgeStyle;rounded=0;orthogonalLoop=1;jettySize=auto;html=1;exitX=1;exitY=0.5;exitDx=0;exitDy=0;entryX=0;entryY=0.5;entryDx=0;entryDy=0;" edge="1" parent="1" source="JxO-gLmdxlp4BYvwZ17s-19" target="JxO-gLmdxlp4BYvwZ17s-22">
          <mxGeometry relative="1" as="geometry" />
        </mxCell>
        <mxCell id="JxO-gLmdxlp4BYvwZ17s-19" value="&lt;b&gt;Model Parser&lt;/b&gt;" style="rounded=0;whiteSpace=wrap;html=1;" vertex="1" parent="1">
          <mxGeometry x="160" y="680" width="120" height="60" as="geometry" />
        </mxCell>
        <mxCell id="JxO-gLmdxlp4BYvwZ17s-57" style="edgeStyle=orthogonalEdgeStyle;rounded=0;orthogonalLoop=1;jettySize=auto;html=1;exitX=1;exitY=0.5;exitDx=0;exitDy=0;" edge="1" parent="1" source="JxO-gLmdxlp4BYvwZ17s-20" target="JxO-gLmdxlp4BYvwZ17s-9">
          <mxGeometry relative="1" as="geometry">
            <Array as="points">
              <mxPoint x="330" y="430" />
              <mxPoint x="330" y="333" />
            </Array>
          </mxGeometry>
        </mxCell>
        <mxCell id="JxO-gLmdxlp4BYvwZ17s-20" value="&lt;b&gt;Losses,&amp;nbsp;&lt;/b&gt;&lt;div&gt;&lt;b&gt;Hazards,&amp;nbsp;&lt;br&gt;Constraints&lt;/b&gt;&lt;/div&gt;" style="shape=document;whiteSpace=wrap;html=1;boundedLbl=1;" vertex="1" parent="1">
          <mxGeometry x="160" y="390" width="120" height="80" as="geometry" />
        </mxCell>
        <mxCell id="JxO-gLmdxlp4BYvwZ17s-27" style="edgeStyle=orthogonalEdgeStyle;rounded=0;orthogonalLoop=1;jettySize=auto;html=1;exitX=1;exitY=0.5;exitDx=0;exitDy=0;" edge="1" parent="1" source="JxO-gLmdxlp4BYvwZ17s-21" target="JxO-gLmdxlp4BYvwZ17s-19">
          <mxGeometry relative="1" as="geometry" />
        </mxCell>
        <mxCell id="JxO-gLmdxlp4BYvwZ17s-21" value="&lt;b&gt;Control Structure Model&lt;/b&gt;" style="shape=document;whiteSpace=wrap;html=1;boundedLbl=1;" vertex="1" parent="1">
          <mxGeometry x="160" y="514.5" width="120" height="80" as="geometry" />
        </mxCell>
        <mxCell id="JxO-gLmdxlp4BYvwZ17s-30" style="edgeStyle=orthogonalEdgeStyle;rounded=0;orthogonalLoop=1;jettySize=auto;html=1;exitX=1;exitY=0.5;exitDx=0;exitDy=0;" edge="1" parent="1" source="JxO-gLmdxlp4BYvwZ17s-22" target="JxO-gLmdxlp4BYvwZ17s-9">
          <mxGeometry relative="1" as="geometry">
            <Array as="points">
              <mxPoint x="540" y="600" />
              <mxPoint x="540" y="333" />
            </Array>
          </mxGeometry>
        </mxCell>
        <mxCell id="JxO-gLmdxlp4BYvwZ17s-22" value="&lt;b&gt;Control Structures,&lt;/b&gt;&lt;div&gt;&lt;b&gt;Actions,&lt;/b&gt;&lt;/div&gt;&lt;div&gt;&lt;b&gt;Feedbacks&lt;/b&gt;&lt;/div&gt;" style="shape=document;whiteSpace=wrap;html=1;boundedLbl=1;" vertex="1" parent="1">
          <mxGeometry x="390" y="560" width="120" height="80" as="geometry" />
        </mxCell>
        <mxCell id="JxO-gLmdxlp4BYvwZ17s-39" style="edgeStyle=orthogonalEdgeStyle;rounded=0;orthogonalLoop=1;jettySize=auto;html=1;exitX=1;exitY=0.5;exitDx=0;exitDy=0;" edge="1" parent="1" source="JxO-gLmdxlp4BYvwZ17s-31" target="JxO-gLmdxlp4BYvwZ17s-5">
          <mxGeometry relative="1" as="geometry">
            <Array as="points">
              <mxPoint x="1020" y="270" />
              <mxPoint x="1020" y="470" />
              <mxPoint x="655" y="470" />
            </Array>
          </mxGeometry>
        </mxCell>
        <mxCell id="JxO-gLmdxlp4BYvwZ17s-31" value="&lt;b&gt;Unreviewed Machine Generated UCAs&lt;/b&gt;" style="shape=document;whiteSpace=wrap;html=1;boundedLbl=1;" vertex="1" parent="1">
          <mxGeometry x="840" y="230" width="120" height="80" as="geometry" />
        </mxCell>
        <mxCell id="JxO-gLmdxlp4BYvwZ17s-43" style="edgeStyle=orthogonalEdgeStyle;rounded=0;orthogonalLoop=1;jettySize=auto;html=1;exitX=1;exitY=0.25;exitDx=0;exitDy=0;" edge="1" parent="1" source="JxO-gLmdxlp4BYvwZ17s-36" target="JxO-gLmdxlp4BYvwZ17s-9">
          <mxGeometry relative="1" as="geometry">
            <mxPoint x="1000" y="540" as="sourcePoint" />
            <Array as="points">
              <mxPoint x="1080" y="580" />
              <mxPoint x="1080" y="170" />
              <mxPoint x="650" y="170" />
            </Array>
          </mxGeometry>
        </mxCell>
        <mxCell id="JxO-gLmdxlp4BYvwZ17s-36" value="&lt;b&gt;Reviewed Machine Generated UCAs&lt;/b&gt;" style="shape=document;whiteSpace=wrap;html=1;boundedLbl=1;" vertex="1" parent="1">
          <mxGeometry x="840" y="560" width="120" height="80" as="geometry" />
        </mxCell>
        <mxCell id="JxO-gLmdxlp4BYvwZ17s-44" style="edgeStyle=orthogonalEdgeStyle;rounded=0;orthogonalLoop=1;jettySize=auto;html=1;exitX=1;exitY=0.25;exitDx=0;exitDy=0;" edge="1" parent="1" source="JxO-gLmdxlp4BYvwZ17s-37" target="JxO-gLmdxlp4BYvwZ17s-9">
          <mxGeometry relative="1" as="geometry">
            <Array as="points">
              <mxPoint x="1080" y="700" />
              <mxPoint x="1080" y="170" />
              <mxPoint x="650" y="170" />
            </Array>
          </mxGeometry>
        </mxCell>
        <mxCell id="JxO-gLmdxlp4BYvwZ17s-37" value="&lt;b&gt;Human Generated UCAs&lt;/b&gt;" style="shape=document;whiteSpace=wrap;html=1;boundedLbl=1;" vertex="1" parent="1">
          <mxGeometry x="840" y="680" width="120" height="80" as="geometry" />
        </mxCell>
        <mxCell id="JxO-gLmdxlp4BYvwZ17s-38" style="edgeStyle=orthogonalEdgeStyle;rounded=0;orthogonalLoop=1;jettySize=auto;html=1;entryX=0;entryY=0.5;entryDx=0;entryDy=0;" edge="1" parent="1" source="JxO-gLmdxlp4BYvwZ17s-9" target="JxO-gLmdxlp4BYvwZ17s-31">
          <mxGeometry relative="1" as="geometry" />
        </mxCell>
        <mxCell id="JxO-gLmdxlp4BYvwZ17s-40" style="edgeStyle=orthogonalEdgeStyle;rounded=0;orthogonalLoop=1;jettySize=auto;html=1;exitX=1;exitY=0.5;exitDx=0;exitDy=0;exitPerimeter=0;entryX=0;entryY=0.5;entryDx=0;entryDy=0;" edge="1" parent="1" source="JxO-gLmdxlp4BYvwZ17s-5" target="JxO-gLmdxlp4BYvwZ17s-36">
          <mxGeometry relative="1" as="geometry" />
        </mxCell>
        <mxCell id="JxO-gLmdxlp4BYvwZ17s-41" style="edgeStyle=orthogonalEdgeStyle;rounded=0;orthogonalLoop=1;jettySize=auto;html=1;exitX=1;exitY=0.5;exitDx=0;exitDy=0;exitPerimeter=0;" edge="1" parent="1" source="JxO-gLmdxlp4BYvwZ17s-5" target="JxO-gLmdxlp4BYvwZ17s-37">
          <mxGeometry relative="1" as="geometry" />
        </mxCell>
        <mxCell id="JxO-gLmdxlp4BYvwZ17s-47" style="edgeStyle=orthogonalEdgeStyle;rounded=0;orthogonalLoop=1;jettySize=auto;html=1;exitX=1;exitY=0.5;exitDx=0;exitDy=0;" edge="1" parent="1" source="JxO-gLmdxlp4BYvwZ17s-42" target="JxO-gLmdxlp4BYvwZ17s-5">
          <mxGeometry relative="1" as="geometry">
            <Array as="points">
              <mxPoint x="1020" y="376" />
              <mxPoint x="1020" y="470" />
              <mxPoint x="655" y="470" />
            </Array>
          </mxGeometry>
        </mxCell>
        <mxCell id="JxO-gLmdxlp4BYvwZ17s-42" value="&lt;b&gt;Unreviewed Machine Generated Loss Scenarios&lt;/b&gt;" style="shape=document;whiteSpace=wrap;html=1;boundedLbl=1;" vertex="1" parent="1">
          <mxGeometry x="840" y="335.5" width="120" height="80" as="geometry" />
        </mxCell>
        <mxCell id="JxO-gLmdxlp4BYvwZ17s-45" style="edgeStyle=orthogonalEdgeStyle;rounded=0;orthogonalLoop=1;jettySize=auto;html=1;" edge="1" parent="1" source="JxO-gLmdxlp4BYvwZ17s-9" target="JxO-gLmdxlp4BYvwZ17s-42">
          <mxGeometry relative="1" as="geometry" />
        </mxCell>
        <mxCell id="JxO-gLmdxlp4BYvwZ17s-48" value="&lt;b style=&quot;font-size: 14px;&quot;&gt;Reviewed Machine Generated Loss Scenarios&lt;/b&gt;" style="shape=document;whiteSpace=wrap;html=1;boundedLbl=1;fontSize=14;" vertex="1" parent="1">
          <mxGeometry x="290" y="840" width="270" height="80" as="geometry" />
        </mxCell>
        <mxCell id="JxO-gLmdxlp4BYvwZ17s-49" value="&lt;b style=&quot;font-size: 14px;&quot;&gt;Human Generated Loss Scenarios&lt;/b&gt;" style="shape=document;whiteSpace=wrap;html=1;boundedLbl=1;fontSize=14;" vertex="1" parent="1">
          <mxGeometry x="720" y="840" width="270" height="80" as="geometry" />
        </mxCell>
        <mxCell id="JxO-gLmdxlp4BYvwZ17s-50" style="edgeStyle=orthogonalEdgeStyle;rounded=0;orthogonalLoop=1;jettySize=auto;html=1;entryX=0.5;entryY=0;entryDx=0;entryDy=0;" edge="1" parent="1" source="JxO-gLmdxlp4BYvwZ17s-6" target="JxO-gLmdxlp4BYvwZ17s-49">
          <mxGeometry relative="1" as="geometry">
            <Array as="points">
              <mxPoint x="655" y="780" />
              <mxPoint x="855" y="780" />
            </Array>
          </mxGeometry>
        </mxCell>
        <mxCell id="JxO-gLmdxlp4BYvwZ17s-51" style="edgeStyle=orthogonalEdgeStyle;rounded=0;orthogonalLoop=1;jettySize=auto;html=1;entryX=0.5;entryY=0;entryDx=0;entryDy=0;" edge="1" parent="1" source="JxO-gLmdxlp4BYvwZ17s-6" target="JxO-gLmdxlp4BYvwZ17s-48">
          <mxGeometry relative="1" as="geometry">
            <Array as="points">
              <mxPoint x="655" y="780" />
              <mxPoint x="425" y="780" />
            </Array>
          </mxGeometry>
        </mxCell>
        <mxCell id="JxO-gLmdxlp4BYvwZ17s-53" value="&lt;font style=&quot;font-size: 16px;&quot; color=&quot;#ff0000&quot;&gt;1.&lt;/font&gt;" style="text;html=1;align=center;verticalAlign=middle;resizable=0;points=[];autosize=1;strokeColor=none;fillColor=none;fontStyle=1" vertex="1" parent="1">
          <mxGeometry x="-40" y="250" width="40" height="30" as="geometry" />
        </mxCell>
        <mxCell id="JxO-gLmdxlp4BYvwZ17s-54" value="&lt;font style=&quot;font-size: 16px;&quot; color=&quot;#ff0000&quot;&gt;2.&lt;/font&gt;" style="text;html=1;align=center;verticalAlign=middle;resizable=0;points=[];autosize=1;strokeColor=none;fillColor=none;fontStyle=1" vertex="1" parent="1">
          <mxGeometry x="-40" y="370" width="40" height="30" as="geometry" />
        </mxCell>
        <mxCell id="JxO-gLmdxlp4BYvwZ17s-56" value="&lt;font style=&quot;font-size: 16px;&quot; color=&quot;#ff0000&quot;&gt;3.&lt;/font&gt;" style="text;html=1;align=center;verticalAlign=middle;resizable=0;points=[];autosize=1;strokeColor=none;fillColor=none;fontStyle=1" vertex="1" parent="1">
          <mxGeometry x="-40" y="494.5" width="40" height="30" as="geometry" />
        </mxCell>
        <mxCell id="JxO-gLmdxlp4BYvwZ17s-58" value="&lt;font style=&quot;font-size: 16px;&quot; color=&quot;#ff0000&quot;&gt;4.&lt;/font&gt;" style="text;html=1;align=center;verticalAlign=middle;resizable=0;points=[];autosize=1;strokeColor=none;fillColor=none;fontStyle=1" vertex="1" parent="1">
          <mxGeometry x="840" y="200" width="40" height="30" as="geometry" />
        </mxCell>
        <mxCell id="JxO-gLmdxlp4BYvwZ17s-59" value="&lt;font style=&quot;font-size: 16px;&quot; color=&quot;#ff0000&quot;&gt;5.&lt;/font&gt;" style="text;html=1;align=center;verticalAlign=middle;resizable=0;points=[];autosize=1;strokeColor=none;fillColor=none;fontStyle=1" vertex="1" parent="1">
          <mxGeometry x="840" y="530" width="40" height="30" as="geometry" />
        </mxCell>
        <mxCell id="JxO-gLmdxlp4BYvwZ17s-60" value="&lt;font style=&quot;font-size: 16px;&quot; color=&quot;#ff0000&quot;&gt;6.&lt;/font&gt;" style="text;html=1;align=center;verticalAlign=middle;resizable=0;points=[];autosize=1;strokeColor=none;fillColor=none;fontStyle=1" vertex="1" parent="1">
          <mxGeometry x="840" y="650" width="40" height="30" as="geometry" />
        </mxCell>
        <mxCell id="JxO-gLmdxlp4BYvwZ17s-61" value="&lt;font style=&quot;font-size: 16px;&quot; color=&quot;#ff0000&quot;&gt;7.&lt;/font&gt;" style="text;html=1;align=center;verticalAlign=middle;resizable=0;points=[];autosize=1;strokeColor=none;fillColor=none;fontStyle=1" vertex="1" parent="1">
          <mxGeometry x="840" y="305.5" width="40" height="30" as="geometry" />
        </mxCell>
        <mxCell id="JxO-gLmdxlp4BYvwZ17s-62" value="&lt;font style=&quot;font-size: 16px;&quot; color=&quot;#ff0000&quot;&gt;8.&lt;/font&gt;" style="text;html=1;align=center;verticalAlign=middle;resizable=0;points=[];autosize=1;strokeColor=none;fillColor=none;fontStyle=1" vertex="1" parent="1">
          <mxGeometry x="720" y="810" width="40" height="30" as="geometry" />
        </mxCell>
        <mxCell id="JxO-gLmdxlp4BYvwZ17s-63" value="&lt;font style=&quot;font-size: 16px;&quot; color=&quot;#ff0000&quot;&gt;7.&lt;/font&gt;" style="text;html=1;align=center;verticalAlign=middle;resizable=0;points=[];autosize=1;strokeColor=none;fillColor=none;fontStyle=1" vertex="1" parent="1">
          <mxGeometry x="290" y="810" width="40" height="30" as="geometry" />
        </mxCell>
      </root>
    </mxGraphModel>
  </diagram>
</mxfile>
